<svg width="18" height="19" viewBox="0 0 18 19" fill="none" xmlns="http://www.w3.org/2000/svg">
<g clip-path="url(#clip0_165_960)">
<path d="M15 2.75H6C4.3425 2.75 3 4.0925 3 5.75V10.25C3 11.9075 4.3425 13.25 6 13.25H15C16.6575 13.25 18 11.9075 18 10.25V5.75C18 4.0925 16.6575 2.75 15 2.75ZM16.5 10.25C16.5 11.075 15.825 11.75 15 11.75H6C5.175 11.75 4.5 11.075 4.5 10.25V5.75C4.5 4.925 5.175 4.25 6 4.25H15C15.825 4.25 16.5 4.925 16.5 5.75V10.25ZM14.25 15.5C14.25 15.9125 13.9125 16.25 13.5 16.25H3.75C1.68 16.25 0 14.57 0 12.5V7.25C0 6.8375 0.3375 6.5 0.75 6.5C1.1625 6.5 1.5 6.8375 1.5 7.25V12.5C1.5 13.7375 2.5125 14.75 3.75 14.75H13.5C13.9125 14.75 14.25 15.0875 14.25 15.5ZM10.5 5.75C9.2625 5.75 8.25 6.7625 8.25 8C8.25 9.2375 9.2625 10.25 10.5 10.25C11.7375 10.25 12.75 9.2375 12.75 8C12.75 6.7625 11.7375 5.75 10.5 5.75ZM10.5 8.75C10.0875 8.75 9.75 8.4125 9.75 8C9.75 7.5875 10.0875 7.25 10.5 7.25C10.9125 7.25 11.25 7.5875 11.25 8C11.25 8.4125 10.9125 8.75 10.5 8.75Z" fill="#7F8A8C"/>
</g>
<defs>
<clipPath id="clip0_165_960">
<rect width="18" height="18" fill="white" transform="translate(0 0.5)"/>
</clipPath>
</defs>
</svg>
