<svg width="18" height="18" viewBox="0 0 16 16" fill="none" xmlns="http://www.w3.org/2000/svg">
<path d="M14.4286 8H14.4393H14.4286ZM8 8H8.01071H8ZM1.57143 8H1.58214H1.57143ZM9.07143 8C9.07143 7.4477 8.59175 7 8 7C7.40825 7 6.92857 7.4477 6.92857 8C6.92857 8.5523 7.40825 9 8 9C8.59175 9 9.07143 8.5523 9.07143 8ZM15.5 8C15.5 7.4477 15.0203 7 14.4286 7C13.8368 7 13.3571 7.4477 13.3571 8C13.3571 8.5523 13.8368 9 14.4286 9C15.0203 9 15.5 8.5523 15.5 8ZM2.64286 8C2.64286 7.4477 2.16316 7 1.57143 7C0.9797 7 0.5 7.4477 0.5 8C0.5 8.5523 0.9797 9 1.57143 9C2.16316 9 2.64286 8.5523 2.64286 8Z" fill="#7F8A8C"/>
<path d="M14.4286 8H14.4393M8 8H8.01071M1.57143 8H1.58214M9.07143 8C9.07143 7.4477 8.59175 7 8 7C7.40825 7 6.92857 7.4477 6.92857 8C6.92857 8.5523 7.40825 9 8 9C8.59175 9 9.07143 8.5523 9.07143 8ZM15.5 8C15.5 7.4477 15.0203 7 14.4286 7C13.8368 7 13.3571 7.4477 13.3571 8C13.3571 8.5523 13.8368 9 14.4286 9C15.0203 9 15.5 8.5523 15.5 8ZM2.64286 8C2.64286 7.4477 2.16316 7 1.57143 7C0.9797 7 0.5 7.4477 0.5 8C0.5 8.5523 0.9797 9 1.57143 9C2.16316 9 2.64286 8.5523 2.64286 8Z" stroke="#7F8A8C" stroke-linecap="round" stroke-linejoin="round"/>
</svg>