<svg width="18" height="19" viewBox="0 0 18 19" fill="none" xmlns="http://www.w3.org/2000/svg">
<path d="M9.00449 9.73176C11.7127 9.71601 13.1707 8.25351 13.221 5.47851C13.1745 2.80851 11.6377 1.26801 8.99549 1.25076C6.32474 1.26726 4.77899 2.87826 4.77899 5.47851C4.77899 8.15676 6.32549 9.71676 9.00449 9.73251V9.73176ZM8.99549 2.75001C10.8232 2.76201 11.6887 3.63726 11.721 5.47701C11.6857 7.39626 10.8712 8.21976 9.00449 8.23101C7.13324 8.21976 6.31799 7.40001 6.27899 5.49051C6.31649 3.60726 7.15724 2.76126 8.99549 2.75001Z" fill="#7F8A8C"/>
<path d="M8.99547 10.7458C4.99948 10.7713 2.84922 12.929 2.77722 16.9873C2.76972 17.4013 3.09972 17.7433 3.51372 17.7508C3.90072 17.7365 4.26897 17.4283 4.27723 17.0143C4.33422 13.781 5.83722 12.266 8.99547 12.2465C12.1215 12.2668 13.668 13.826 13.7235 17.0135C13.731 17.423 14.0655 17.7508 14.4735 17.7508H14.487C14.901 17.7433 15.231 17.402 15.2242 16.988C15.1552 12.9883 12.9472 10.772 8.99622 10.7465L8.99547 10.7458Z" fill="#7F8A8C"/>
</svg>
