<svg width="18" height="19" viewBox="0 0 18 19" fill="none" xmlns="http://www.w3.org/2000/svg">
<path d="M3 5.75C3 5.05109 3 4.70163 3.11418 4.42597C3.26642 4.05843 3.55843 3.76642 3.92597 3.61418C4.20163 3.5 4.55109 3.5 5.25 3.5C5.94891 3.5 6.29837 3.5 6.57403 3.61418C6.94157 3.76642 7.23358 4.05843 7.38582 4.42597C7.5 4.70163 7.5 5.05109 7.5 5.75C7.5 6.44891 7.5 6.79837 7.38582 7.07403C7.23358 7.44157 6.94157 7.73358 6.57403 7.88582C6.29837 8 5.94891 8 5.25 8C4.55109 8 4.20163 8 3.92597 7.88582C3.55843 7.73358 3.26642 7.44157 3.11418 7.07403C3 6.79837 3 6.44891 3 5.75Z" fill="white"/>
<path d="M10.5 5.75C10.5 5.05109 10.5 4.70163 10.6142 4.42597C10.7664 4.05843 11.0584 3.76642 11.426 3.61418C11.7016 3.5 12.0511 3.5 12.75 3.5C13.4489 3.5 13.7984 3.5 14.074 3.61418C14.4416 3.76642 14.7336 4.05843 14.8858 4.42597C15 4.70163 15 5.05109 15 5.75C15 6.44891 15 6.79837 14.8858 7.07403C14.7336 7.44157 14.4416 7.73358 14.074 7.88582C13.7984 8 13.4489 8 12.75 8C12.0511 8 11.7016 8 11.426 7.88582C11.0584 7.73358 10.7664 7.44157 10.6142 7.07403C10.5 6.79837 10.5 6.44891 10.5 5.75Z" fill="white"/>
<path d="M3 13.25C3 12.5511 3 12.2016 3.11418 11.926C3.26642 11.5584 3.55843 11.2664 3.92597 11.1142C4.20163 11 4.55109 11 5.25 11C5.94891 11 6.29837 11 6.57403 11.1142C6.94157 11.2664 7.23358 11.5584 7.38582 11.926C7.5 12.2016 7.5 12.5511 7.5 13.25C7.5 13.9489 7.5 14.2984 7.38582 14.574C7.23358 14.9416 6.94157 15.2336 6.57403 15.3858C6.29837 15.5 5.94891 15.5 5.25 15.5C4.55109 15.5 4.20163 15.5 3.92597 15.3858C3.55843 15.2336 3.26642 14.9416 3.11418 14.574C3 14.2984 3 13.9489 3 13.25Z" fill="white"/>
<path d="M10.5 13.25C10.5 12.5511 10.5 12.2016 10.6142 11.926C10.7664 11.5584 11.0584 11.2664 11.426 11.1142C11.7016 11 12.0511 11 12.75 11C13.4489 11 13.7984 11 14.074 11.1142C14.4416 11.2664 14.7336 11.5584 14.8858 11.926C15 12.2016 15 12.5511 15 13.25C15 13.9489 15 14.2984 14.8858 14.574C14.7336 14.9416 14.4416 15.2336 14.074 15.3858C13.7984 15.5 13.4489 15.5 12.75 15.5C12.0511 15.5 11.7016 15.5 11.426 15.3858C11.0584 15.2336 10.7664 14.9416 10.6142 14.574C10.5 14.2984 10.5 13.9489 10.5 13.25Z" fill="white"/>
</svg>