<svg width="18" height="19" viewBox="0 0 18 19" fill="none" xmlns="http://www.w3.org/2000/svg">
<path d="M16.6867 8.33151C17.1675 7.78476 17.3557 7.03476 17.19 6.32526L17.1277 6.06801C16.905 5.19276 16.1527 4.52526 15.255 4.40676C14.64 4.32576 14.0152 4.25676 13.3837 4.20051C13.3987 4.08801 13.4062 3.97401 13.4062 3.85926C13.4062 2.43726 12.2497 1.28076 10.8277 1.28076C10.1137 1.28076 9.46723 1.57251 8.99923 2.04276C8.53198 1.57251 7.88473 1.28076 7.17073 1.28076C5.74873 1.28076 4.59223 2.43726 4.59223 3.85926C4.59223 3.97476 4.60048 4.08951 4.61548 4.20276C3.98323 4.25976 3.35773 4.32876 2.74198 4.41051C1.84423 4.52976 1.09198 5.19801 0.870729 6.07251L0.808479 6.32901C0.643479 7.03926 0.831729 7.78926 1.31248 8.33601C1.40698 8.44401 1.50973 8.54076 1.61923 8.62626C1.16398 10.9303 1.24648 13.5635 1.84498 15.7115C2.08348 16.5643 2.80348 17.1995 3.68098 17.3285C5.44498 17.588 7.22173 17.717 8.99773 17.717C10.7737 17.717 12.5512 17.5873 14.3152 17.3285C15.192 17.1995 15.9127 16.5643 16.1505 15.7115C16.7497 13.5628 16.8315 10.9288 16.377 8.62251C16.4865 8.53701 16.59 8.43951 16.6845 8.33151H16.6867ZM15.0585 5.89326C15.354 5.93226 15.6007 6.15051 15.6735 6.44001L15.729 6.66426C15.7852 6.90801 15.7237 7.15476 15.5595 7.34151C15.399 7.52301 15.1792 7.61526 14.928 7.58976C13.2315 7.41876 11.493 7.32351 9.74923 7.30251V5.51376C11.55 5.54076 13.3425 5.66751 15.0577 5.89401L15.0585 5.89326ZM10.8285 2.78151C11.4232 2.78151 11.907 3.26526 11.907 3.86001C11.907 3.92676 11.9062 4.01976 11.8957 4.09176C11.1892 4.05126 10.4775 4.02501 9.76348 4.01451C9.75748 3.96426 9.75073 3.90126 9.75073 3.86001C9.75073 3.26601 10.2337 2.78151 10.8285 2.78151ZM7.17223 2.78151C7.76623 2.78151 8.25073 3.26526 8.25073 3.86001C8.25073 3.90126 8.24398 3.96501 8.23798 4.01526C7.52473 4.02651 6.81223 4.05276 6.10573 4.09401C6.09523 4.02051 6.09448 3.92676 6.09448 3.86001C6.09448 3.26601 6.57748 2.78151 7.17223 2.78151ZM2.27023 6.66951L2.32573 6.44151C2.39848 6.15576 2.64523 5.93676 2.93998 5.89776C4.65598 5.67051 6.44848 5.54226 8.24998 5.51376V7.30251C6.50548 7.32426 4.76623 7.42176 3.07048 7.59351C2.82523 7.62126 2.59948 7.52676 2.43973 7.34526C2.27548 7.15851 2.21398 6.91251 2.27023 6.66951ZM3.29173 15.3088C2.77648 13.4608 2.69173 11.114 3.05848 9.09576C3.11248 9.09426 3.16723 9.09126 3.22198 9.08601C4.86898 8.91876 6.55723 8.82501 8.25073 8.80251V16.2088C6.79723 16.1773 5.34523 16.0565 3.90148 15.8443C3.61048 15.8015 3.37123 15.5908 3.29248 15.308L3.29173 15.3088ZM14.7082 15.3088C14.6302 15.5878 14.385 15.803 14.0992 15.845C12.6562 16.0573 11.2035 16.178 9.74998 16.2095V8.80176C11.4435 8.82276 13.1317 8.91576 14.7787 9.08151C14.8327 9.08676 14.8867 9.08976 14.9407 9.09126C15.3082 11.111 15.2242 13.4593 14.709 15.3073L14.7082 15.3088Z" fill="#7F8A8C"/>
</svg>
