<svg width="18" height="18" viewBox="0 0 15 15" fill="none" xmlns="http://www.w3.org/2000/svg">
<path d="M12.3057 9.90281L11.1043 8.70141L12.3057 7.5C13.6327 6.17296 13.6327 4.02139 12.3057 2.69434C10.9786 1.3673 8.82703 1.3673 7.49999 2.69434L6.29858 3.89576L5.09717 2.69434L6.29858 1.49293C8.28911 -0.497643 11.5165 -0.497643 13.5071 1.49293C15.4976 3.4835 15.4976 6.71088 13.5071 8.70141L12.3057 9.90281ZM9.90279 12.3057L8.70139 13.5071C6.71086 15.4976 3.48349 15.4976 1.49293 13.5071C-0.497643 11.5165 -0.497643 8.28913 1.49293 6.2986L2.69434 5.09717L3.89575 6.2986L2.69434 7.5C1.36729 8.82705 1.36729 10.9787 2.69434 12.3057C4.02139 13.6327 6.17294 13.6327 7.49999 12.3057L8.70139 11.1042L9.90279 12.3057ZM9.90279 3.89576L11.1043 5.09717L5.09717 11.1042L3.89575 9.90281L9.90279 3.89576Z" fill="#7F8A8C"/>
</svg>
